<?xml version="1.0" encoding="UTF-8"?>
<!DOCTYPE svg PUBLIC "-//W3C//DTD SVG 1.1//EN" "http://www.w3.org/Graphics/SVG/1.1/DTD/svg11.dtd">
<!-- Creator: CorelDRAW 2026 -->
<svg xmlns="http://www.w3.org/2000/svg" xml:space="preserve" width="10.0608mm" height="9.6241mm" version="1.1" style="shape-rendering:geometricPrecision; text-rendering:geometricPrecision; image-rendering:optimizeQuality; fill-rule:evenodd; clip-rule:evenodd"
viewBox="0 0 39.97 38.24"
 xmlns:xlink="http://www.w3.org/1999/xlink"
 xmlns:xodm="http://www.corel.com/coreldraw/odm/2003" xmlns:c2pa="http://c2pa.org/manifest"><metadata><c2pa:manifest>AAAWgmp1bWIAAAAeanVtZGMycGEAEQAQgAAAqgA4m3EDYzJwYQAAABZcanVtYgAAAEdqdW1kYzJtYQARABCAAACqADibcQN1cm46YzJwYTo4N2VkMTY4Yi00ZDQ0LTQ4MmUtYTMxNS0xZjU4YjBkMmRmNTcAAAADl2p1bWIAAAApanVtZGMyYXMAEQAQgAAAqgA4m3EDYzJwYS5hc3NlcnRpb25zAAAAALxqdW1iAAAARGp1bWRjYm9yABEAEIAAAKoAOJtxE2MycGEuaW5ncmVkaWVudC52MwAAAAAYYzJzaMCx2lMYYnfpokg5LB/5lOQAAABwY2JvcqNpZGM6Zm9ybWF0bWltYWdlL3N2Zyt4bWxqaW5zdGFuY2VJRHgseG1wOmlpZDo2MmU4YWMxMy1iOGI0LTRiNmMtYmE4ZS0xNGNmYTEyYjcwNzZscmVsYXRpb25zaGlwaHBhcmVudE9mAAAB4mp1bWIAAABBanVtZGNib3IAEQAQgAAAqgA4m3ETYzJwYS5hY3Rpb25zLnYyAAAAABhjMnNo/aFAqvbapkp/yFDBEhvEyAAAAZljYm9yomdhY3Rpb25zgqJmYWN0aW9ua2MycGEub3BlbmVkanBhcmFtZXRlcnOha2luZ3JlZGllbnRzgaJjdXJseC1zZWxmI2p1bWJmPWMycGEuYXNzZXJ0aW9ucy9jMnBhLmluZ3JlZGllbnQudjNkaGFzaFgg4dC2aWlft9s59BK3Ezyg3nWCNRT5oU7RSwLzcMpatr2kZmFjdGlvbngdY29tLmFudGhyb3BpYy5jbGF1ZGUucHJvdmlkZWRqcGFyYW1ldGVyc6F4H2NvbS5hbnRocm9waWMub3JpZ2luLWNvbmZpZGVuY2VndW5rbm93bmtkZXNjcmlwdGlvbnhmQ2xhdWRlIHByb3ZpZGVkIHRoaXMgZmlsZSBhdCB0aGUgcmVxdWVzdCBvZiBhIHVzZXIgYW5kIG1heSBoYXZlIGNyZWF0ZWQgb3IgbW9kaWZpZWQgdGhlIGZpbGUgY29udGVudHMubXNvZnR3YXJlQWdlbnShZG5hbWVmQ2xhdWRlcmFsbEFjdGlvbnNJbmNsdWRlZPUAAADIanVtYgAAAEBqdW1kY2JvcgARABCAAACqADibcRNjMnBhLmhhc2guZGF0YQAAAAAYYzJzaPghVKYyeDCbWGnP4kbb6+cAAACAY2JvcqVjYWxnZnNoYTI1NmNwYWRMAAAAAAAAAAAAAAAAZGhhc2hYIF2lRoAaV4HlZUcjx3CYi4t/uBDvhxTqTQao3z62iojwZG5hbWVuanVtYmYgbWFuaWZlc3RqZXhjbHVzaW9uc4GiZXN0YXJ0GQJwZmxlbmd0aBkeBAAAAj5qdW1iAAAAJ2p1bWRjMmNsABEAEIAAAKoAOJtxA2MycGEuY2xhaW0udjIAAAACD2Nib3KlY2FsZ2ZzaGEyNTZpc2lnbmF0dXJleE1zZWxmI2p1bWJmPS9jMnBhL3VybjpjMnBhOjg3ZWQxNjhiLTRkNDQtNDgyZS1hMzE1LTFmNThiMGQyZGY1Ny9jMnBhLnNpZ25hdHVyZWppbnN0YW5jZUlEeCx4bXA6aWlkOjgyMDUwMWY5LWI4NmMtNDY4NC05OTlmLTY3YWY4MjY3M2M3NnJjcmVhdGVkX2Fzc2VydGlvbnODomN1cmx4LXNlbGYjanVtYmY9YzJwYS5hc3NlcnRpb25zL2MycGEuaW5ncmVkaWVudC52M2RoYXNoWCDh0LZpaV+32zn0ErcTPKDedYI1FPmhTtFLAvNwylq2vaJjdXJseCpzZWxmI2p1bWJmPWMycGEuYXNzZXJ0aW9ucy9jMnBhLmFjdGlvbnMudjJkaGFzaFgg1KTQvG/Dodw7vmU/cm45WTWQUB85R+0JC1PxyDvsXyiiY3VybHgpc2VsZiNqdW1iZj1jMnBhLmFzc2VydGlvbnMvYzJwYS5oYXNoLmRhdGFkaGFzaFggfRJ2bZ6MXof6KRJPC5v0nAb96CQxYatzxHmpaY4EK7V0Y2xhaW1fZ2VuZXJhdG9yX2luZm+jZG5hbWVvQW50aHJvcGljIEZpbGVzZ3ZlcnNpb25lMS4wLjBrc3BlY1ZlcnNpb25lMi40LjAAABA4anVtYgAAAChqdW1kYzJjcwARABCAAACqADibcQNjMnBhLnNpZ25hdHVyZQAAABAIY2JvctKEWQISogEmGCFZAgowggIGMIIBjaADAgECAhRA5aAK7sI50L64g/oGQgU9Z1UTADAKBggqhkjOPQQDAzBJMRcwFQYDVQQKEw5BbnRocm9waWMsIFBCQzEuMCwGA1UEAxMlQW50aHJvcGljIENvbnRlbnQgQ3JlZGVudGlhbHMgUm9vdCBDQTAeFw0yNjA4MDcxODQzNTZaFw0yODA4MDYxOTQzNTZaMEQxFzAVBgNVBAoTDkFudGhyb3BpYywgUEJDMSkwJwYDVQQDEyBBbnRocm9waWMgQ2xhdWRlIENvbnRlbnQgU2lnbmluZzBZMBMGByqGSM49AgEGCCqGSM49AwEHA0IABJh6CmvLUBgFFNU0vUKlOVtE6djd17L5SuwX0LemFisBM3dkd/3cyjxFA3Qo5S46fX0/ihY0VZ7mfb9KF703t5OjWDBWMA4GA1UdDwEB/wQEAwIHgDAVBgNVHSUEDjAMBgorBgEEAYPoXgIBMAwGA1UdEwEB/wQCMAAwHwYDVR0jBBgwFoAUzlHiBIFOZFsj+OPEz5o+nMHXXMIwCgYIKoZIzj0EAwMDZwAwZAIwMXMdFJ4BetLLVY7ORuE9noqbbAZOZn/aArXyTwFAZfKrPzxF2vPoJNf1+UCdg1XGAjBwX1zd9WGqYkqmL5SFqw1QySjr1zJfpJM9+1rdDwSPLMOPOjKuiXjoU/pUUeG9RwmhY3BhZFkNngAAAAAAAAAAAAAAAAAAAAAAAAAAAAAAAAAAAAAAAAAAAAAAAAAAAAAAAAAAAAAAAAAAAAAAAAAAAAAAAAAAAAAAAAAAAAAAAAAAAAAAAAAAAAAAAAAAAAAAAAAAAAAAAAAAAAAAAAAAAAAAAAAAAAAAAAAAAAAAAAAAAAAAAAAAAAAAAAAAAAAAAAAAAAAAAAAAAAAAAAAAAAAAAAAAAAAAAAAAAAAAAAAAAAAAAAAAAAAAAAAAAAAAAAAAAAAAAAAAAAAAAAAAAAAAAAAAAAAAAAAAAAAAAAAAAAAAAAAAAAAAAAAAAAAAAAAAAAAAAAAAAAAAAAAAAAAAAAAAAAAAAAAAAAAAAAAAAAAAAAAAAAAAAAAAAAAAAAAAAAAAAAAAAAAAAAAAAAAAAAAAAAAAAAAAAAAAAAAAAAAAAAAAAAAAAAAAAAAAAAAAAAAAAAAAAAAAAAAAAAAAAAAAAAAAAAAAAAAAAAAAAAAAAAAAAAAAAAAAAAAAAAAAAAAAAAAAAAAAAAAAAAAAAAAAAAAAAAAAAAAAAAAAAAAAAAAAAAAAAAAAAAAAAAAAAAAAAAAAAAAAAAAAAAAAAAAAAAAAAAAAAAAAAAAAAAAAAAAAAAAAAAAAAAAAAAAAAAAAAAAAAAAAAAAAAAAAAAAAAAAAAAAAAAAAAAAAAAAAAAAAAAAAAAAAAAAAAAAAAAAAAAAAAAAAAAAAAAAAAAAAAAAAAAAAAAAAAAAAAAAAAAAAAAAAAAAAAAAAAAAAAAAAAAAAAAAAAAAAAAAAAAAAAAAAAAAAAAAAAAAAAAAAAAAAAAAAAAAAAAAAAAAAAAAAAAAAAAAAAAAAAAAAAAAAAAAAAAAAAAAAAAAAAAAAAAAAAAAAAAAAAAAAAAAAAAAAAAAAAAAAAAAAAAAAAAAAAAAAAAAAAAAAAAAAAAAAAAAAAAAAAAAAAAAAAAAAAAAAAAAAAAAAAAAAAAAAAAAAAAAAAAAAAAAAAAAAAAAAAAAAAAAAAAAAAAAAAAAAAAAAAAAAAAAAAAAAAAAAAAAAAAAAAAAAAAAAAAAAAAAAAAAAAAAAAAAAAAAAAAAAAAAAAAAAAAAAAAAAAAAAAAAAAAAAAAAAAAAAAAAAAAAAAAAAAAAAAAAAAAAAAAAAAAAAAAAAAAAAAAAAAAAAAAAAAAAAAAAAAAAAAAAAAAAAAAAAAAAAAAAAAAAAAAAAAAAAAAAAAAAAAAAAAAAAAAAAAAAAAAAAAAAAAAAAAAAAAAAAAAAAAAAAAAAAAAAAAAAAAAAAAAAAAAAAAAAAAAAAAAAAAAAAAAAAAAAAAAAAAAAAAAAAAAAAAAAAAAAAAAAAAAAAAAAAAAAAAAAAAAAAAAAAAAAAAAAAAAAAAAAAAAAAAAAAAAAAAAAAAAAAAAAAAAAAAAAAAAAAAAAAAAAAAAAAAAAAAAAAAAAAAAAAAAAAAAAAAAAAAAAAAAAAAAAAAAAAAAAAAAAAAAAAAAAAAAAAAAAAAAAAAAAAAAAAAAAAAAAAAAAAAAAAAAAAAAAAAAAAAAAAAAAAAAAAAAAAAAAAAAAAAAAAAAAAAAAAAAAAAAAAAAAAAAAAAAAAAAAAAAAAAAAAAAAAAAAAAAAAAAAAAAAAAAAAAAAAAAAAAAAAAAAAAAAAAAAAAAAAAAAAAAAAAAAAAAAAAAAAAAAAAAAAAAAAAAAAAAAAAAAAAAAAAAAAAAAAAAAAAAAAAAAAAAAAAAAAAAAAAAAAAAAAAAAAAAAAAAAAAAAAAAAAAAAAAAAAAAAAAAAAAAAAAAAAAAAAAAAAAAAAAAAAAAAAAAAAAAAAAAAAAAAAAAAAAAAAAAAAAAAAAAAAAAAAAAAAAAAAAAAAAAAAAAAAAAAAAAAAAAAAAAAAAAAAAAAAAAAAAAAAAAAAAAAAAAAAAAAAAAAAAAAAAAAAAAAAAAAAAAAAAAAAAAAAAAAAAAAAAAAAAAAAAAAAAAAAAAAAAAAAAAAAAAAAAAAAAAAAAAAAAAAAAAAAAAAAAAAAAAAAAAAAAAAAAAAAAAAAAAAAAAAAAAAAAAAAAAAAAAAAAAAAAAAAAAAAAAAAAAAAAAAAAAAAAAAAAAAAAAAAAAAAAAAAAAAAAAAAAAAAAAAAAAAAAAAAAAAAAAAAAAAAAAAAAAAAAAAAAAAAAAAAAAAAAAAAAAAAAAAAAAAAAAAAAAAAAAAAAAAAAAAAAAAAAAAAAAAAAAAAAAAAAAAAAAAAAAAAAAAAAAAAAAAAAAAAAAAAAAAAAAAAAAAAAAAAAAAAAAAAAAAAAAAAAAAAAAAAAAAAAAAAAAAAAAAAAAAAAAAAAAAAAAAAAAAAAAAAAAAAAAAAAAAAAAAAAAAAAAAAAAAAAAAAAAAAAAAAAAAAAAAAAAAAAAAAAAAAAAAAAAAAAAAAAAAAAAAAAAAAAAAAAAAAAAAAAAAAAAAAAAAAAAAAAAAAAAAAAAAAAAAAAAAAAAAAAAAAAAAAAAAAAAAAAAAAAAAAAAAAAAAAAAAAAAAAAAAAAAAAAAAAAAAAAAAAAAAAAAAAAAAAAAAAAAAAAAAAAAAAAAAAAAAAAAAAAAAAAAAAAAAAAAAAAAAAAAAAAAAAAAAAAAAAAAAAAAAAAAAAAAAAAAAAAAAAAAAAAAAAAAAAAAAAAAAAAAAAAAAAAAAAAAAAAAAAAAAAAAAAAAAAAAAAAAAAAAAAAAAAAAAAAAAAAAAAAAAAAAAAAAAAAAAAAAAAAAAAAAAAAAAAAAAAAAAAAAAAAAAAAAAAAAAAAAAAAAAAAAAAAAAAAAAAAAAAAAAAAAAAAAAAAAAAAAAAAAAAAAAAAAAAAAAAAAAAAAAAAAAAAAAAAAAAAAAAAAAAAAAAAAAAAAAAAAAAAAAAAAAAAAAAAAAAAAAAAAAAAAAAAAAAAAAAAAAAAAAAAAAAAAAAAAAAAAAAAAAAAAAAAAAAAAAAAAAAAAAAAAAAAAAAAAAAAAAAAAAAAAAAAAAAAAAAAAAAAAAAAAAAAAAAAAAAAAAAAAAAAAAAAAAAAAAAAAAAAAAAAAAAAAAAAAAAAAAAAAAAAAAAAAAAAAAAAAAAAAAAAAAAAAAAAAAAAAAAAAAAAAAAAAAAAAAAAAAAAAAAAAAAAAAAAAAAAAAAAAAAAAAAAAAAAAAAAAAAAAAAAAAAAAAAAAAAAAAAAAAAAAAAAAAAAAAAAAAAAAAAAAAAAAAAAAAAAAAAAAAAAAAAAAAAAAAAAAAAAAAAAAAAAAAAAAAAAAAAAAAAAAAAAAAAAAAAAAAAAAAAAAAAAAAAAAAAAAAAAAAAAAAAAAAAAAAAAAAAAAAAAAAAAAAAAAAAAAAAAAAAAAAAAAAAAAAAAAAAAAAAAAAAAAAAAAAAAAAAAAAAAAAAAAAAAAAAAAAAAAAAAAAAAAAAAAAAAAAAAAAAAAAAAAAAAAAAAAAAAAAAAAAAAAAAAAAAAAAAAAAAAAAAAAAAAAAAAAAAAAAAAAAAAAAAAAAAAAAAAAAAAAAAAAAAAAAAAAAAAAAAAAAAAAAAAAAAAAAAAAAAAAAAAAAAAAAAAAAAAAAAAAAAAAAAAAAAAAAAAAAAAAAAAAAAAAAAAAAAAAAAAAAAAAAAAAAAAAAAAAAAAAAAAAAAAAAAAAAAAAAAAAAAAAAAAAAAAAAAAAAAAAAAAAAAAAAAAAAAAAAAAAAAAAAAAAAAAAAAAAAAAAAAAAAAAAAAAAAAAAAAAAAAAAAAAAAAAAAAAAAAAAAAAAAAAAAAAAAAAAAAAAAAAAAAAAAAAAAAAAAAAAAAAAAAAAAAAAAAAAAAAAAAAAAAAAAAAAAAAAAAAAAAAAAAAAAAAAAAAAAAAAAAAAAAAAAAAAAAAAAAAAAAAAAAAAAAAAAAAAAAAAAAAAAAAAAAAAAAAAAAAAAAAAAAAAAAAAAAAAAAAAAAAAAAAAAAAAAAAAAAAAAAAAAAAAAAAAAAAAAAAAAAAAAAAAAAAAAAAAAAAAAAAAAAAAAAAAAAAAAAAAAAAAAAAAAAAAAAAAAAAAAAAAAAAAAAAAAAAAAAAAAAAAAAAAAAAAAAAAAAAAAAAAAAAAAAAAAAAAAAAAAAAAAAAAAAAAAAAAAAAAAAAAAAAAAAAAAAAAAAAAAAAAAAAAAAAAAAAAAAAAAAAAAAAAAAAAAAAAAAAAAAAAAAAAAAAAAAAAAAAAAAAAAAAAAAAAAAAAAAAAAAAAAAAAAAAAAAAAAAAAAAAAAAAAAAAAAAAAAAAAAAAAAAAAAAAAAAAAAAAAAAAAAAAAAAAAAAAAAAAAAAAAAAAAAAAAAAAAAAAAAAAAAAAAAAAAAAAAAAAAAAAAAAAAAAAAAAAAAAAAAAAAAAAAAAAAAAAAAAAAAAAAAAAAAAAAAAAAAAAAAAAAAAAAAAAAAAAAAAAAAAAAAAAAAAAAAAAAAAAAAAAAAAAAAAAAAAAAAAAAAAAAAAAAAAAAAAAAAAAAAAAAAAAAAAAAAAAAAAAAAAAAAAAAAAAAAAAAAAAAAAAAAAAAAAAAAAAAAAAAAAAAAAAAAAAAAAAAAAAAAAAAAAAAAAAAAAAAAAAAAAAAAAAAAAAAAAAAAAAAAAAAAAAAAAAAAAAAAAAAAAAAAAAAAAAAAAAAAAAAAAAAAAAAAAAAAAAAAAAAAAAAAAAPZYQO4HTCtUXQwEFVhLIemTdwFthMUudlRGx71uYvlLkggxXi+0PsqINHNhSKVW/j0NDJAwQgoG+YlFUH8QkHKbVlE=</c2pa:manifest></metadata>
 <defs>
  <style type="text/css">
   <![CDATA[
    .str0 {stroke:white;stroke-width:0.99;stroke-miterlimit:22.9256}
    .fil0 {fill:#08A94C}
    .fil1 {fill:white}
   ]]>
  </style>
 </defs>
 <g id="Layer_x0020_1">
  <metadata id="CorelCorpID_0Corel-Layer"/>
  <path class="fil0" d="M23.52 17.97l2.23 6.51c-1.16,-0.59 -3.92,-3.07 -5.39,-3.89 -0.36,-0.2 -0.39,-0.11 -0.69,0.11 -0.25,0.19 -0.45,0.33 -0.7,0.5 -0.68,0.47 -3.82,2.82 -4.07,2.89 0.51,-1.29 1.15,-3.4 1.67,-4.87 0.5,-1.44 0.64,-1.01 -1.32,-2.44 -0.76,-0.55 -3.61,-2.35 -3.86,-2.82l6.72 -0.04 1.42 -4.88c0.17,-0.58 0.37,-1.04 0.57,-1.55l1.95 6.44 6.9 0.01c-0.2,0.31 -0.89,0.8 -1.27,1.07 -0.23,0.16 -0.47,0.32 -0.72,0.47l-2.79 1.94c-0.22,0.17 -0.43,0.38 -0.64,0.54zm-6.89 -5.91c-1.14,-0.36 -5.4,-4.05 -6.42,-4.28l-0.59 1.78c0.34,0.41 3.52,2.1 3.85,2.65l-4.5 -0.07 -0.71 1.82c0.65,0.86 3.03,1.93 3.78,2.75l-4.64 -0.13c-0.1,0.18 -0.59,1.97 -0.58,2.15l7.66 0.05c-0.36,0.85 -5.29,3.75 -5.99,4.81 0.32,0.35 1.13,0.94 1.68,1.13l3.57 -2.8 -1.56 4.49c2.02,0.7 0.41,2.13 4.29,-1.19 0.26,-0.22 0.7,-0.55 0.97,-0.69l-1.68 4.38 1.75 1.27c0.43,-0.86 0.38,-0.65 0.75,-1.69l1.19 -3.7c0.19,-0.61 0.5,-1.27 0.65,-1.86 0.01,0.01 0.03,0.01 0.03,0.03l0.11 0.13c0.78,1.17 1.82,6.24 2.53,7.07 0.64,-0.23 1.08,-0.84 1.58,-1.12l-1.55 -4.34c0.61,0.22 2.64,1.86 3.18,2.38 0.34,0.33 0.46,0.47 1.18,-0.02 0.19,-0.13 0.33,-0.26 0.51,-0.41 0.24,-0.19 0.33,-0.16 0.27,-0.55 -0.07,-0.47 -0.25,-1.03 -0.4,-1.45 -0.21,-0.6 -0.88,-2.34 -0.97,-2.8 0.5,0.19 2.72,2.06 3.37,2.58 0.38,0.3 0.28,0.3 0.7,0.04 0.37,-0.23 1.14,-0.74 1.31,-1.08l-1.5 -1.22c-0.82,-0.63 -4.04,-2.96 -4.62,-3.54l7.69 -0.03 -0.45 -1.91c-0.34,-0.11 -3.95,0.14 -4.69,0.13 0.37,-0.47 3.04,-2.36 3.76,-2.66l-0.58 -1.96 -4.65 0.1c0.11,-0.21 1.46,-1.09 1.78,-1.31 0.55,-0.38 1.29,-0.91 2.02,-1.13l-0.65 -2.24 -1.6 1.07c-0.55,0.38 -1.08,0.73 -1.61,1.11l-3.2 2.18c0.12,-1.18 1.25,-4.07 1.72,-5.51 0.21,-0.63 0.34,-1.23 0.53,-1.87l-2.16 -0.06c-0.05,0.27 -1,4.17 -1.18,4.39 -0.29,-0.51 -0.53,-1.43 -0.72,-2.11 -0.05,-0.2 -0.48,-2.08 -0.66,-2.22 -0.19,-0.12 -1.58,-0.05 -1.93,-0.06 -0.18,0.36 -1.08,3.79 -1.31,4.55 -0.42,-0.41 -0.8,-2.31 -0.99,-3.08 -0.46,-1.84 -0.37,-1.47 -2.59,-1.47 0.04,0.57 2.12,6.6 2.29,7.54z"/>
  <path class="fil0" d="M2.79 21.02c-0.18,-2.09 1.08,-4.73 1.71,-6.96 1.13,-4.03 2.59,-7.69 3.69,-11.52 0.08,-0.26 0.16,-0.58 0.26,-0.83 0.33,-0.79 1.33,-0.46 2.68,-0.46 6.57,0 12.79,-0.15 19.44,-0 0.67,0.01 0.7,-0.04 0.82,0.26 0.39,0.95 0.53,1.42 0.84,2.42 0.35,1.14 0.66,2.23 1.04,3.3 0.39,1.08 0.75,2.12 1.11,3.23 0.36,1.11 0.66,2.23 1.05,3.3 1.26,3.47 2.78,7.12 0.78,10.29 -0.62,0.98 -1.26,1.45 -2.21,2.14 -0.83,0.61 -1.73,1.2 -2.55,1.8 -3.3,2.39 -6.85,4.89 -10.08,7.3 -1.66,1.24 -1.26,1.05 -2.59,0.1l-6.27 -4.6c-0.42,-0.3 -0.83,-0.59 -1.26,-0.92 -1.61,-1.25 -3.93,-2.85 -5.68,-4.1 -1.48,-1.05 -2.65,-2.85 -2.81,-4.77zm2.8 -14.45c-0.14,-0.04 -1.57,-1.07 -2.12,-1.36l-0.71 2.12c0.35,0.19 0.45,0.12 1.09,0.54 0.21,0.14 0.83,0.6 1.03,0.65 -0.34,1.44 -0.37,1.2 -1.09,1.2 -0.66,0 -1.08,-0.11 -1.74,-0.11 -0.07,0.32 -0.64,1.53 -0.65,2.12 0.77,0.4 1.37,0.89 2.06,1.36 -0.04,0.19 -0.19,0.46 -0.33,1.03l-2.66 0c0,0.83 -0.49,1.39 -0.49,2.28l2.44 0c-0.63,1.19 -1.04,2.71 -1.14,4.07 -0.13,1.74 0.33,3.03 1,4.16 0.1,0.16 0.16,0.23 0.27,0.38 0.23,0.33 0.64,0.76 0.91,1.04 0.25,0.25 0.42,0.4 0.69,0.61l13.68 10.06c0.61,0.41 1.81,1.36 2.46,1.51l11.37 -8.23c0.44,-0.32 0.87,-0.57 1.29,-0.88 0.22,-0.16 0.43,-0.29 0.64,-0.44 0.21,-0.15 0.4,-0.3 0.63,-0.46 1.91,-1.33 4.75,-3.62 4.75,-6.22 0,-1.28 0.04,-2.24 -0.4,-3.46 -0.26,-0.71 -0.56,-1.26 -0.63,-2.14 0.4,0.09 1.59,0.12 1.96,-0.05 0.11,-0.46 0.05,-0.69 -0.2,-1.27 -0.1,-0.24 -0.29,-0.56 -0.34,-0.8l-2.12 0c-0.24,-0.45 -0.58,-1.18 -0.05,-1.52l0.8 -0.51c0.21,-0.12 0.33,-0.11 0.51,-0.2 -0.01,-0.66 -0.24,-1.54 -0.54,-2.12l-2.28 0c-0.02,-0.18 -0.09,-0.53 -0.14,-0.73 -0.06,-0.22 -0.16,-0.48 -0.18,-0.69l1.74 -0.98c-0.01,-0.67 -0.47,-1.85 -0.71,-2.34 -0.3,0.2 -0.57,0.39 -0.86,0.61 -0.19,0.14 -0.74,0.54 -0.93,0.59 -0.02,-0.25 -0.94,-2.89 -1.04,-3.2l-0.77 -2.38c-0.08,-0.24 -0.23,-0.6 -0.25,-0.84l-24.88 0c-0.03,0.37 -0.86,2.71 -1.04,3.25l-0.8 2.46c-0.07,0.25 -0.14,0.67 -0.23,0.86z"/>
  <path class="fil1 str0" d="M3.57 20.67c0,-3.13 1.61,-6.66 2.57,-9.66l1.78 -5.68c0.14,-0.44 1.04,-3.16 1.07,-3.44l20.44 0c0.49,-0 0.86,0.05 1.39,0.05 0.06,0.25 0.12,0.33 0.21,0.54l2.07 6.19c0.68,2.03 1.15,3.61 1.89,5.67 0.13,0.37 0.27,0.71 0.4,1.1 0.9,2.73 1.85,5.57 0.25,8.23 -0.82,1.37 -2.92,2.61 -4.23,3.6 -0.37,0.28 -0.74,0.55 -1.12,0.81l-7.96 5.78c-0.39,0.29 -0.74,0.56 -1.15,0.83 -0.21,0.14 -0.37,0.25 -0.58,0.38 -0.11,0.07 -0.22,0.14 -0.3,0.18 -0.13,0.06 -0.25,0.1 -0.37,0.16 -0.88,-0.59 -2.42,-1.77 -3.35,-2.45l-9.01 -6.55c-0.2,-0.15 -0.36,-0.26 -0.56,-0.41 -1.63,-1.22 -3.45,-2.46 -3.45,-5.35zm-0.57 0.32c0.16,1.89 1.32,3.67 2.78,4.71 1.73,1.23 4.02,2.81 5.61,4.05 0.42,0.32 0.83,0.61 1.24,0.91l6.19 4.54c1.31,0.94 0.92,1.12 2.56,-0.1 3.19,-2.38 6.7,-4.85 9.96,-7.21 0.81,-0.59 1.69,-1.17 2.52,-1.78 0.93,-0.68 1.57,-1.14 2.18,-2.11 1.97,-3.14 0.47,-6.74 -0.77,-10.17 -0.38,-1.06 -0.68,-2.16 -1.04,-3.26 -0.36,-1.1 -0.72,-2.13 -1.1,-3.19 -0.38,-1.06 -0.68,-2.13 -1.03,-3.26 -0.3,-0.99 -0.44,-1.46 -0.83,-2.39 -0.12,-0.3 -0.15,-0.24 -0.81,-0.26 -6.57,-0.15 -12.72,0.01 -19.21,0 -1.33,0 -2.33,-0.33 -2.65,0.45 -0.1,0.25 -0.18,0.56 -0.26,0.82 -1.08,3.78 -2.52,7.4 -3.65,11.38 -0.62,2.21 -1.86,4.81 -1.69,6.87z"/>
 </g>
</svg>
